HIERARCHY
ROOT Hips
{
	OFFSET 0.000000 0.000000 0.000000
	CHANNELS 6 Xposition Yposition Zposition Xrotation Yrotation Zrotation
	JOINT LeftUpLeg_virtual
	{
		OFFSET 0.000000 0.000000 0.000000
		CHANNELS 3 Xrotation Yrotation Zrotation
		JOINT LeftUpLeg
		{
			OFFSET 15.427100 -6.655098 0.678600
			CHANNELS 3 Xrotation Yrotation Zrotation
			JOINT LeftLeg
			{
				OFFSET 4.081073 -39.591068 13.024000
				CHANNELS 3 Xrotation Yrotation Zrotation
				JOINT LeftFoot
				{
					OFFSET -4.081074 -37.707932 -15.979700
					CHANNELS 3 Xrotation Yrotation Zrotation
					JOINT LeftToeBase
					{
						OFFSET 5.346399 -15.068900 20.645000
						CHANNELS 3 Xrotation Yrotation Zrotation
						JOINT LeftToe_End
						{
							OFFSET 2.754700 0.931300 11.300900
							CHANNELS 3 Xrotation Yrotation Zrotation
							End Site
							{
								OFFSET 0 0 0
							}
						}
					}
				}
			}
		}
	}
	JOINT RightUpLeg_virtual
	{
		OFFSET 0.000000 0.000000 0.000000
		CHANNELS 3 Xrotation Yrotation Zrotation
		JOINT RightUpLeg
		{
			OFFSET -15.569500 -6.655098 0.678600
			CHANNELS 3 Xrotation Yrotation Zrotation
			JOINT RightLeg
			{
				OFFSET -4.081825 -39.591045 13.023800
				CHANNELS 3 Xrotation Yrotation Zrotation
				JOINT RightFoot
				{
					OFFSET 4.081824 -37.707954 -15.979600
					CHANNELS 3 Xrotation Yrotation Zrotation
					JOINT RightToeBase
					{
						OFFSET -5.346400 -15.068900 20.645000
						CHANNELS 3 Xrotation Yrotation Zrotation
						JOINT RightToe_End
						{
							OFFSET -2.754700 0.931300 11.300900
							CHANNELS 3 Xrotation Yrotation Zrotation
							End Site
							{
								OFFSET 0 0 0
							}
						}
					}
				}
			}
		}
	}
	JOINT Spine_virtual
	{
		OFFSET 0.000000 0.000000 0.000000
		CHANNELS 3 Xrotation Yrotation Zrotation
		JOINT Spine
		{
			OFFSET -0.279200 12.230698 -2.892100
			CHANNELS 3 Xrotation Yrotation Zrotation
			JOINT Spine1
			{
				OFFSET -0.232667 10.192268 -1.242267
				CHANNELS 3 Xrotation Yrotation Zrotation
				JOINT Spine1_split
				{
					OFFSET -0.232667 10.192268 -1.242267
					CHANNELS 3 Xrotation Yrotation Zrotation
					JOINT Spine2
					{
						OFFSET -0.232667 10.192268 -1.242267
						CHANNELS 3 Xrotation Yrotation Zrotation
						JOINT Neck_virtual
						{
							OFFSET 0.000000 0.000000 0.000000
							CHANNELS 3 Xrotation Yrotation Zrotation
							JOINT Neck
							{
								OFFSET -0.418800 17.814194 8.416900
								CHANNELS 3 Xrotation Yrotation Zrotation
								JOINT Head
								{
									OFFSET 0.000000 7.031097 3.806800
									CHANNELS 3 Xrotation Yrotation Zrotation
									JOINT HeadTop_End
									{
										OFFSET 0.000000 24.646606 12.978600
										CHANNELS 3 Xrotation Yrotation Zrotation
										End Site
										{
											OFFSET 0 0 0
										}
									}
								}
							}
						}
						JOINT LeftShoulder_virtual
						{
							OFFSET 0.000000 0.000000 0.000000
							CHANNELS 3 Xrotation Yrotation Zrotation
							JOINT LeftShoulder
							{
								OFFSET 8.476499 7.247704 -3.868750
								CHANNELS 3 Xrotation Yrotation Zrotation
								JOINT LeftShoulder_split
								{
									OFFSET 8.476499 7.247704 -3.868750
									CHANNELS 3 Xrotation Yrotation Zrotation
									JOINT LeftArm
									{
										OFFSET 9.308998 -2.777710 0.208600
										CHANNELS 3 Xrotation Yrotation Zrotation
										JOINT LeftForeArm
										{
											OFFSET 29.972298 0.000000 0.000000
											CHANNELS 3 Xrotation Yrotation Zrotation
											JOINT LeftHand
											{
												OFFSET 26.026505 0.000000 0.000000
												CHANNELS 3 Xrotation Yrotation Zrotation
												End Site
												{
													OFFSET 0 0 0
												}
											}
										}
									}
								}
							}
						}
						JOINT RightShoulder_virtual
						{
							OFFSET 0.000000 0.000000 0.000000
							CHANNELS 3 Xrotation Yrotation Zrotation
							JOINT RightShoulder
							{
								OFFSET -7.570500 7.247704 -3.868750
								CHANNELS 3 Xrotation Yrotation Zrotation
								JOINT RightShoulder_split
								{
									OFFSET -7.570500 7.247704 -3.868750
									CHANNELS 3 Xrotation Yrotation Zrotation
									JOINT RightArm
									{
										OFFSET -9.308998 -2.777710 0.208500
										CHANNELS 3 Xrotation Yrotation Zrotation
										JOINT RightForeArm
										{
											OFFSET -29.972300 0.000000 0.000000
											CHANNELS 3 Xrotation Yrotation Zrotation
											JOINT RightHand
											{
												OFFSET -26.026505 0.000000 0.000000
												CHANNELS 3 Xrotation Yrotation Zrotation
												End Site
												{
													OFFSET 0 0 0
												}
											}
										}
									}
								}
							}
						}
					}
				}
			}
		}
	}
}
MOTION
Frames: 4
Frame Time: 0.03333333
2.180664 82.366051 -1.187855 0.000000 0.000000 0.000000 9.582438 -61.717924 10.032907 -36.772687 10.614519 26.396079 33.318096 -8.019715 0.411756 -2.592087 -1.482516 -18.489117 -1.836438 -0.000619 -0.000032 0.000000 0.000000 0.000000 9.582438 -61.717924 10.032907 -28.947267 -19.270648 -35.995032 32.932652 6.440025 -2.515200 -10.677426 -1.251444 25.194087 -0.001663 -0.000376 0.000007 0.000000 0.000000 0.000000 9.582438 -61.717924 10.032907 15.067631 -0.186174 -4.164453 5.872813 0.571251 -2.801485 0.000000 0.000000 0.000000 0.000000 0.000000 0.000000 5.868636 0.648867 -2.855438 -3.636315 1.441471 3.747633 -20.003645 54.833134 2.408456 0.000000 0.000000 0.000000 5.868636 0.648867 -2.855438 1.829296 -3.192735 -12.271670 0.000000 0.000000 0.000000 -39.386692 26.350112 -34.911996 0.430054 -46.810162 0.421465 0.000000 0.000000 0.000000 5.868636 0.648867 -2.855438 0.631510 7.257368 8.703781 0.000000 0.000000 0.000000 7.936908 -9.680984 53.430784 -22.866918 36.192158 17.964147 0.000000 0.000000 0.000000 
2.255795 82.333130 -1.165241 0.000000 0.000000 0.000000 7.420415 -62.608355 7.541010 -35.865914 10.844040 27.557221 33.759590 -7.784531 0.402268 -3.007644 -1.852035 -18.632705 -1.836438 -0.000618 -0.000032 0.000000 0.000000 0.000000 7.420415 -62.608355 7.541010 -28.248452 -19.826432 -35.277934 32.739289 7.788645 -2.473348 -10.370345 -1.519748 24.453792 -0.001663 -0.000376 0.000007 0.000000 0.000000 0.000000 7.420415 -62.608355 7.541010 14.765633 -0.170874 -4.089625 5.731449 0.497492 -2.601728 0.000000 0.000000 0.000000 0.000000 0.000000 0.000000 5.728702 0.572378 -2.640778 -3.172932 1.885424 3.613001 -19.015356 55.489973 2.614349 0.000000 0.000000 0.000000 5.728702 0.572378 -2.640778 1.753346 -3.032284 -12.822388 0.000000 0.000000 0.000000 -32.213832 23.425698 -33.713530 0.377266 -47.042870 0.374146 0.000000 0.000000 0.000000 5.728702 0.572378 -2.640778 -1.447333 6.161774 8.633104 0.000000 0.000000 0.000000 9.394065 -10.760425 54.077094 -22.572445 37.039484 17.841269 0.000000 0.000000 0.000000 
2.335139 82.232002 -1.084637 0.000000 0.000000 0.000000 4.858713 -64.361276 4.562401 -34.843093 11.786995 29.278282 34.465886 -8.286690 0.342615 -3.733261 -1.466787 -18.600951 -1.836438 -0.000618 -0.000032 0.000000 0.000000 0.000000 4.858713 -64.361276 4.562401 -27.375651 -19.570626 -34.193686 32.623678 8.440514 -2.489698 -9.963589 -1.020721 23.994414 -0.001663 -0.000376 0.000007 0.000000 0.000000 0.000000 4.858713 -64.361276 4.562401 13.955923 -0.096260 -3.845280 5.353495 0.303638 -2.121743 0.000000 0.000000 0.000000 0.000000 0.000000 0.000000 5.354802 0.371085 -2.125152 -1.988714 2.953753 3.321219 -16.574781 56.788303 1.558034 0.000000 0.000000 0.000000 5.354802 0.371085 -2.125152 1.574592 -2.619407 -14.233884 0.000000 0.000000 0.000000 -23.554765 21.210097 -31.551929 0.317796 -45.950784 0.284400 0.000000 0.000000 0.000000 5.354802 0.371085 -2.125152 -6.616058 4.584718 8.134602 0.000000 0.000000 0.000000 12.017086 -15.513291 54.328991 -22.066045 40.056580 17.908631 0.000000 0.000000 0.000000 
2.398369 82.003036 -0.968288 0.000000 0.000000 0.000000 1.925387 -66.130930 1.184533 -33.911271 12.714715 31.187433 35.405822 -8.489013 0.283750 -4.628569 -1.395688 -18.688586 -1.836438 -0.000619 -0.000032 0.000000 0.000000 0.000000 1.925387 -66.130930 1.184533 -26.498919 -19.056305 -33.222026 32.710275 8.445993 -2.528005 -9.687690 0.028612 23.862138 -0.001663 -0.000376 0.000007 0.000000 0.000000 0.000000 1.925387 -66.130930 1.184533 12.781756 0.027288 -3.497439 4.817282 0.032695 -1.533439 0.000000 0.000000 0.000000 0.000000 0.000000 0.000000 4.825457 0.088630 -1.493713 -0.461101 4.255964 2.996348 -12.491220 57.994037 -0.748460 0.000000 0.000000 0.000000 4.825457 0.088630 -1.493713 1.361644 -2.056904 -16.145000 0.000000 0.000000 0.000000 -14.072009 19.876219 -29.334033 1.242844 -45.264101 0.950456 0.000000 0.000000 0.000000 4.825457 0.088630 -1.493713 -12.957639 2.831219 7.045981 0.000000 0.000000 0.000000 14.698079 -23.427013 54.643679 -22.088815 46.016514 18.937579 0.000000 0.000000 0.000000 
